<svg xmlns="http://www.w3.org/2000/svg" viewBox="0 0 79.82 54.22"><path d="M73.89,32.26l8.94-8.93A3.74,3.74,0,0,0,77.54,18L68.61,27,59.67,18a3.74,3.74,0,0,0-5.28,5.29l8.93,8.93L54.39,41.2a3.73,3.73,0,1,0,5.28,5.28l8.94-8.93,8.93,8.93a3.74,3.74,0,1,0,5.29-5.28Z" transform="translate(-4.1 -16.95)"/><path d="M24.7,32.26l8.94-8.93A3.74,3.74,0,0,0,28.35,18L19.41,27,10.48,18a3.74,3.74,0,0,0-5.29,5.29l8.94,8.93L5.19,41.2a3.74,3.74,0,1,0,5.29,5.28l8.93-8.93,8.94,8.93a3.74,3.74,0,1,0,5.29-5.28Z" transform="translate(-4.1 -16.95)"/><path d="M79.78,69.92h0a3.43,3.43,0,0,0-.1-5C71.42,57.3,58.78,52.4,44.6,52.4s-26.92,5-35.18,12.67A3.42,3.42,0,0,0,9.33,70l.17.17a3.5,3.5,0,0,0,4.75.12c7.65-6.54,18.5-10.62,30.54-10.62s22.62,4,30.26,10.39A3.5,3.5,0,0,0,79.78,69.92Z" transform="translate(-4.1 -16.95)"/></svg>