<svg xmlns="http://www.w3.org/2000/svg" viewBox="0 0 88.47 92.56" fill="#d10e0e"><path d="M49.6,55.71a5.75,5.75,0,0,0,6-5.44V8.49a5.74,5.74,0,0,0-6-5.43,5.73,5.73,0,0,0-6,5.43V50.27A5.74,5.74,0,0,0,49.6,55.71Z" transform="translate(-5.36 -3.06)"/><path d="M75.69,15.7h0a6,6,0,1,0-7.41,9.43h0a32.23,32.23,0,1,1-37.36,0v0a6,6,0,1,0-7.5-9.35C8.61,26.66.81,46.56,8.17,67.33A42.12,42.12,0,0,0,34.16,93C65,103.56,93.83,80.77,93.83,51.38A44.16,44.16,0,0,0,75.69,15.7Z" transform="translate(-5.36 -3.06)"/></svg>